{
    "asset" : {
        "generator" : "Khronos glTF Blender I/O v3.3.32",
        "version" : "2.0"
    },
    "scene" : 0,
    "scenes" : [
        {
            "name" : "Scene",
            "nodes" : [
                0,
                1,
                2,
                3,
                4,
                5
            ]
        }
    ],
    "nodes" : [
        {
            "mesh" : 0,
            "name" : "Player",
            "translation" : [
                0,
                8.78074836730957,
                0
            ]
        },
        {
            "mesh" : 1,
            "name" : "Other",
            "translation" : [
                11.134598731994629,
                3.8098013401031494,
                0
            ]
        },
        {
            "mesh" : 2,
            "name" : "Other.001",
            "translation" : [
                -10.333335876464844,
                3.8098013401031494,
                0
            ]
        },
        {
            "mesh" : 3,
            "name" : "Lamp"
        },
        {
            "mesh" : 4,
            "name" : "Lamp.001"
        },
        {
            "mesh" : 5,
            "name" : "Lamp.002"
        }
    ],
    "meshes" : [
        {
            "name" : "Sphere.001",
            "primitives" : [
                {
                    "attributes" : {
                        "POSITION" : 0,
                        "NORMAL" : 1,
                        "TEXCOORD_0" : 2
                    },
                    "indices" : 3
                }
            ]
        },
        {
            "name" : "Cube.019",
            "primitives" : [
                {
                    "attributes" : {
                        "POSITION" : 4,
                        "NORMAL" : 5,
                        "TEXCOORD_0" : 6
                    },
                    "indices" : 7
                }
            ]
        },
        {
            "name" : "Cube.020",
            "primitives" : [
                {
                    "attributes" : {
                        "POSITION" : 8,
                        "NORMAL" : 9,
                        "TEXCOORD_0" : 10
                    },
                    "indices" : 11
                }
            ]
        },
        {
            "name" : "Circle",
            "primitives" : [
                {
                    "attributes" : {
                        "POSITION" : 12,
                        "NORMAL" : 13
                    },
                    "indices" : 14
                }
            ]
        },
        {
            "name" : "Circle.001",
            "primitives" : [
                {
                    "attributes" : {
                        "POSITION" : 15,
                        "NORMAL" : 16
                    },
                    "indices" : 14
                }
            ]
        },
        {
            "name" : "Circle.002",
            "primitives" : [
                {
                    "attributes" : {
                        "POSITION" : 17,
                        "NORMAL" : 18
                    },
                    "indices" : 14
                }
            ]
        }
    ],
    "accessors" : [
        {
            "bufferView" : 0,
            "componentType" : 5126,
            "count" : 559,
            "max" : [
                0.5225144624710083,
                0.5225148797035217,
                0.5225142240524292
            ],
            "min" : [
                -0.5225140452384949,
                -0.522514283657074,
                -0.5225145816802979
            ],
            "type" : "VEC3"
        },
        {
            "bufferView" : 1,
            "componentType" : 5126,
            "count" : 559,
            "type" : "VEC3"
        },
        {
            "bufferView" : 2,
            "componentType" : 5126,
            "count" : 559,
            "type" : "VEC2"
        },
        {
            "bufferView" : 3,
            "componentType" : 5123,
            "count" : 2880,
            "type" : "SCALAR"
        },
        {
            "bufferView" : 4,
            "componentType" : 5126,
            "count" : 384,
            "max" : [
                4.797694206237793,
                4.797694206237793,
                4.797694206237793
            ],
            "min" : [
                -4.754124164581299,
                -4.797694206237793,
                -4.797694206237793
            ],
            "type" : "VEC3"
        },
        {
            "bufferView" : 5,
            "componentType" : 5126,
            "count" : 384,
            "type" : "VEC3"
        },
        {
            "bufferView" : 6,
            "componentType" : 5126,
            "count" : 384,
            "type" : "VEC2"
        },
        {
            "bufferView" : 7,
            "componentType" : 5123,
            "count" : 564,
            "type" : "SCALAR"
        },
        {
            "bufferView" : 8,
            "componentType" : 5126,
            "count" : 384,
            "max" : [
                4.754125595092773,
                4.797694206237793,
                4.797695636749268
            ],
            "min" : [
                -4.797695636749268,
                -4.797694206237793,
                -4.797695636749268
            ],
            "type" : "VEC3"
        },
        {
            "bufferView" : 9,
            "componentType" : 5126,
            "count" : 384,
            "type" : "VEC3"
        },
        {
            "bufferView" : 10,
            "componentType" : 5126,
            "count" : 384,
            "type" : "VEC2"
        },
        {
            "bufferView" : 11,
            "componentType" : 5123,
            "count" : 564,
            "type" : "SCALAR"
        },
        {
            "bufferView" : 12,
            "componentType" : 5126,
            "count" : 5120,
            "max" : [
                23.451433181762695,
                0.25,
                23.451433181762695
            ],
            "min" : [
                -23.451433181762695,
                -0.25,
                -23.451433181762695
            ],
            "type" : "VEC3"
        },
        {
            "bufferView" : 13,
            "componentType" : 5126,
            "count" : 5120,
            "type" : "VEC3"
        },
        {
            "bufferView" : 14,
            "componentType" : 5123,
            "count" : 30720,
            "type" : "SCALAR"
        },
        {
            "bufferView" : 15,
            "componentType" : 5126,
            "count" : 5120,
            "max" : [
                21.89139747619629,
                0.23336949944496155,
                21.89139747619629
            ],
            "min" : [
                -21.89139747619629,
                -0.23336949944496155,
                -21.89139747619629
            ],
            "type" : "VEC3"
        },
        {
            "bufferView" : 16,
            "componentType" : 5126,
            "count" : 5120,
            "type" : "VEC3"
        },
        {
            "bufferView" : 17,
            "componentType" : 5126,
            "count" : 5120,
            "max" : [
                20.35647201538086,
                0.21700669825077057,
                20.35647201538086
            ],
            "min" : [
                -20.35647201538086,
                -0.21700669825077057,
                -20.35647201538086
            ],
            "type" : "VEC3"
        },
        {
            "bufferView" : 18,
            "componentType" : 5126,
            "count" : 5120,
            "type" : "VEC3"
        }
    ],
    "bufferViews" : [
        {
            "buffer" : 0,
            "byteLength" : 6708,
            "byteOffset" : 0,
            "target" : 34962
        },
        {
            "buffer" : 0,
            "byteLength" : 6708,
            "byteOffset" : 6708,
            "target" : 34962
        },
        {
            "buffer" : 0,
            "byteLength" : 4472,
            "byteOffset" : 13416,
            "target" : 34962
        },
        {
            "buffer" : 0,
            "byteLength" : 5760,
            "byteOffset" : 17888,
            "target" : 34963
        },
        {
            "buffer" : 0,
            "byteLength" : 4608,
            "byteOffset" : 23648,
            "target" : 34962
        },
        {
            "buffer" : 0,
            "byteLength" : 4608,
            "byteOffset" : 28256,
            "target" : 34962
        },
        {
            "buffer" : 0,
            "byteLength" : 3072,
            "byteOffset" : 32864,
            "target" : 34962
        },
        {
            "buffer" : 0,
            "byteLength" : 1128,
            "byteOffset" : 35936,
            "target" : 34963
        },
        {
            "buffer" : 0,
            "byteLength" : 4608,
            "byteOffset" : 37064,
            "target" : 34962
        },
        {
            "buffer" : 0,
            "byteLength" : 4608,
            "byteOffset" : 41672,
            "target" : 34962
        },
        {
            "buffer" : 0,
            "byteLength" : 3072,
            "byteOffset" : 46280,
            "target" : 34962
        },
        {
            "buffer" : 0,
            "byteLength" : 1128,
            "byteOffset" : 49352,
            "target" : 34963
        },
        {
            "buffer" : 0,
            "byteLength" : 61440,
            "byteOffset" : 50480,
            "target" : 34962
        },
        {
            "buffer" : 0,
            "byteLength" : 61440,
            "byteOffset" : 111920,
            "target" : 34962
        },
        {
            "buffer" : 0,
            "byteLength" : 61440,
            "byteOffset" : 173360,
            "target" : 34963
        },
        {
            "buffer" : 0,
            "byteLength" : 61440,
            "byteOffset" : 234800,
            "target" : 34962
        },
        {
            "buffer" : 0,
            "byteLength" : 61440,
            "byteOffset" : 296240,
            "target" : 34962
        },
        {
            "buffer" : 0,
            "byteLength" : 61440,
            "byteOffset" : 357680,
            "target" : 34962
        },
        {
            "buffer" : 0,
            "byteLength" : 61440,
            "byteOffset" : 419120,
            "target" : 34962
        }
    ],
    "buffers" : [
        {
            "byteLength" : 480560,
            "uri" : "data:application/octet-stream;base64,"
        }
    ]
}
